# xmcd
#
# Track frame offsets:
#	150
#	2570
#	11884
#	46575
#	59530
#	76272
#	86902
#	111182
#	123307
#	143012
#	157417
#	182242
#	196107
#	218250
#	232645
#	248577
#	267555
#	280855
#	295285
#	315565
#	327402
#	338957
#
# Disc length: 4677 seconds
#
# Revision: 0
# Processed by: cddbd v1.5.1PL0 Copyright (c) Steve Scherf et al.
# Submitted via: EasyCDDAExtractor 4.6.9.1
#
DISCID=35124316
DTITLE=The Jackson Gang - Live At The Station Inn
DYEAR=2002
DGENRE=Bluegrass
TTITLE0=Watermelon On The Vine
TTITLE1=Head Over Heels
TTITLE2=Oh What A Silent Night
TTITLE3=A Good Woman's Love
TTITLE4=Born To Roam
TTITLE5=Cherokee Shuffle
TTITLE6=Body And Soul
TTITLE7=Little Maggie
TTITLE8=Sweetheart You Done Me Wrong
TTITLE9=Engineer
TTITLE10=The Old Crossroads
TTITLE11=Doin' My Time
TTITLE12=Last Train From Poor Valley
TTITLE13=Left Over Bisquits
TTITLE14=Footprints In The Snow
TTITLE15=Sweetheart Of Mine Can't You Hear Me Calling
TTITLE16=Dark Hollow
TTITLE17=Take This Hammer, Carry It To The Captain
TTITLE18=Ramblin' Man
TTITLE19=Instrumental
TTITLE20=Uncle Pen
TTITLE21=Instrumental
EXTD=
EXTT0=
EXTT1=
EXTT2=
EXTT3=
EXTT4=
EXTT5=
EXTT6=
EXTT7=
EXTT8=
EXTT9=
EXTT10=
EXTT11=
EXTT12=
EXTT13=
EXTT14=
EXTT15=
EXTT16=
EXTT17=
EXTT18=
EXTT19=
EXTT20=
EXTT21=
PLAYORDER=
